<svg xmlns="http://www.w3.org/2000/svg" xmlns:xlink="http://www.w3.org/1999/xlink" width="88" zoomAndPan="magnify" viewBox="0 0 66 66" height="88" preserveAspectRatio="xMidYMid meet" version="1.2"><g id="99b4350c84"><path style=" stroke:none;fill-rule:nonzero;fill:#ffffff;fill-opacity:1;" d="M 23.566406 31.941406 C 21.914062 31.941406 20.492188 32.925781 19.835938 34.335938 C 19.269531 33.863281 18.664062 33.433594 17.988281 33.085938 C 17.484375 32.824219 16.859375 33.023438 16.601562 33.527344 C 16.339844 34.03125 16.535156 34.65625 17.042969 34.914062 C 19.796875 36.339844 21.507812 39.148438 21.507812 42.242188 C 21.507812 42.8125 21.96875 43.273438 22.535156 43.273438 C 23.105469 43.273438 23.566406 42.8125 23.566406 42.242188 C 23.566406 39.96875 22.8125 37.828125 21.503906 36.078125 C 21.503906 36.074219 21.507812 36.066406 21.507812 36.0625 C 21.507812 34.925781 22.429688 34 23.566406 34 C 24.136719 34 24.597656 33.539062 24.597656 32.972656 C 24.597656 32.402344 24.136719 31.941406 23.566406 31.941406 Z M 23.566406 31.941406 "/><path style=" stroke:none;fill-rule:nonzero;fill:#ffffff;fill-opacity:1;" d="M 61.820312 28.847656 C 59.90625 28.847656 58.304688 30.167969 57.84375 31.941406 L 34 31.941406 L 34 23.699219 L 45.335938 23.699219 C 45.726562 23.699219 46.082031 23.476562 46.257812 23.128906 L 48.03125 19.578125 L 51.664062 19.578125 C 52.125 21.347656 53.722656 22.667969 55.636719 22.667969 C 57.910156 22.667969 59.757812 20.820312 59.757812 18.546875 C 59.757812 16.273438 57.910156 14.425781 55.636719 14.425781 C 53.722656 14.425781 52.125 15.742188 51.664062 17.515625 L 47.394531 17.515625 C 47.003906 17.515625 46.648438 17.734375 46.472656 18.085938 L 44.699219 21.636719 L 34 21.636719 L 34 14.425781 L 43.273438 14.425781 C 43.644531 14.425781 43.984375 14.226562 44.167969 13.90625 L 47.652344 7.808594 C 48.199219 8.078125 48.804688 8.242188 49.457031 8.242188 C 51.730469 8.242188 53.578125 6.394531 53.578125 4.121094 C 53.578125 1.847656 51.730469 0 49.457031 0 C 47.183594 0 45.335938 1.847656 45.335938 4.121094 C 45.335938 4.984375 45.601562 5.785156 46.058594 6.445312 L 42.675781 12.363281 L 34 12.363281 L 34 1.03125 C 34 0.460938 33.539062 0 32.96875 0 C 29.90625 0 27.148438 1.671875 25.71875 4.324219 C 25.050781 4.191406 24.371094 4.121094 23.699219 4.121094 C 19.128906 4.121094 15.199219 7.054688 13.867188 11.347656 C 8.445312 11.636719 4.121094 16.140625 4.121094 21.636719 C 4.121094 22.585938 4.253906 23.527344 4.519531 24.449219 C 1.710938 26.359375 0 29.550781 0 32.972656 C 0 36.390625 1.710938 39.582031 4.519531 41.492188 C 4.253906 42.414062 4.121094 43.355469 4.121094 44.304688 C 4.121094 49.800781 8.445312 54.304688 13.867188 54.59375 C 15.199219 58.886719 19.128906 61.820312 23.699219 61.820312 C 24.371094 61.820312 25.050781 61.75 25.71875 61.617188 C 27.148438 64.269531 29.90625 65.941406 32.96875 65.941406 C 33.539062 65.941406 34 65.480469 34 64.910156 L 34 53.578125 L 42.675781 53.578125 L 46.058594 59.496094 C 45.601562 60.15625 45.335938 60.957031 45.335938 61.820312 C 45.335938 64.09375 47.183594 65.941406 49.457031 65.941406 C 51.730469 65.941406 53.578125 64.09375 53.578125 61.820312 C 53.578125 59.546875 51.730469 57.699219 49.457031 57.699219 C 48.804688 57.699219 48.199219 57.863281 47.652344 58.132812 L 44.167969 52.035156 C 43.984375 51.714844 43.644531 51.515625 43.273438 51.515625 L 34 51.515625 L 34 44.304688 L 44.699219 44.304688 L 46.472656 47.855469 C 46.648438 48.207031 47.003906 48.425781 47.394531 48.425781 L 51.664062 48.425781 C 52.125 50.199219 53.722656 51.515625 55.636719 51.515625 C 57.910156 51.515625 59.757812 49.667969 59.757812 47.394531 C 59.757812 45.121094 57.910156 43.273438 55.636719 43.273438 C 53.722656 43.273438 52.125 44.59375 51.664062 46.363281 L 48.03125 46.363281 L 46.257812 42.8125 C 46.082031 42.464844 45.726562 42.242188 45.335938 42.242188 L 34 42.242188 L 34 34 L 57.84375 34 C 58.304688 35.773438 59.90625 37.09375 61.820312 37.09375 C 64.09375 37.09375 65.941406 35.242188 65.941406 32.972656 C 65.941406 30.699219 64.09375 28.847656 61.820312 28.847656 Z M 55.636719 16.484375 C 56.773438 16.484375 57.699219 17.410156 57.699219 18.546875 C 57.699219 19.683594 56.773438 20.605469 55.636719 20.605469 C 54.503906 20.605469 53.578125 19.683594 53.578125 18.546875 C 53.578125 17.410156 54.503906 16.484375 55.636719 16.484375 Z M 49.457031 2.0625 C 50.59375 2.0625 51.515625 2.984375 51.515625 4.121094 C 51.515625 5.257812 50.59375 6.183594 49.457031 6.183594 C 48.320312 6.183594 47.394531 5.257812 47.394531 4.121094 C 47.394531 2.984375 48.320312 2.0625 49.457031 2.0625 Z M 51.515625 61.820312 C 51.515625 62.957031 50.59375 63.878906 49.457031 63.878906 C 48.320312 63.878906 47.394531 62.957031 47.394531 61.820312 C 47.394531 60.683594 48.320312 59.757812 49.457031 59.757812 C 50.59375 59.757812 51.515625 60.683594 51.515625 61.820312 Z M 55.636719 45.335938 C 56.773438 45.335938 57.699219 46.257812 57.699219 47.394531 C 57.699219 48.53125 56.773438 49.457031 55.636719 49.457031 C 54.503906 49.457031 53.578125 48.53125 53.578125 47.394531 C 53.578125 46.257812 54.503906 45.335938 55.636719 45.335938 Z M 27.246094 60.027344 C 27.085938 59.628906 26.699219 59.382812 26.292969 59.382812 C 26.195312 59.382812 26.097656 59.398438 26.003906 59.425781 C 25.242188 59.648438 24.46875 59.757812 23.699219 59.757812 C 19.820312 59.757812 16.515625 57.121094 15.664062 53.339844 C 15.660156 53.328125 15.65625 53.320312 15.652344 53.308594 C 15.523438 52.722656 15.453125 52.121094 15.453125 51.515625 C 15.453125 49.878906 15.933594 48.292969 16.84375 46.9375 C 17.160156 46.464844 17.03125 45.824219 16.558594 45.507812 C 16.089844 45.191406 15.445312 45.320312 15.128906 45.792969 C 13.996094 47.488281 13.394531 49.46875 13.394531 51.515625 C 13.394531 51.839844 13.417969 52.164062 13.449219 52.484375 C 9.363281 52 6.183594 48.519531 6.183594 44.304688 C 6.183594 43.324219 6.363281 42.351562 6.714844 41.410156 C 7.316406 39.8125 8.417969 38.40625 9.847656 37.449219 C 10.320312 37.132812 10.445312 36.492188 10.128906 36.019531 C 9.8125 35.546875 9.171875 35.421875 8.699219 35.738281 C 7.273438 36.691406 6.105469 38.007812 5.308594 39.515625 C 3.28125 37.96875 2.0625 35.550781 2.0625 32.972656 C 2.0625 30.007812 3.667969 27.257812 6.257812 25.792969 C 6.3125 25.761719 6.484375 25.664062 6.523438 25.644531 C 7.699219 25.035156 8.972656 24.726562 10.304688 24.726562 C 12.804688 24.726562 15.140625 25.84375 16.714844 27.789062 C 16.917969 28.042969 17.214844 28.171875 17.515625 28.171875 C 17.742188 28.171875 17.972656 28.097656 18.164062 27.941406 C 18.605469 27.585938 18.675781 26.9375 18.316406 26.492188 C 16.347656 24.0625 13.429688 22.667969 10.304688 22.667969 C 8.960938 22.667969 7.632812 22.945312 6.398438 23.449219 C 6.261719 22.851562 6.183594 22.246094 6.183594 21.636719 C 6.183594 17.4375 9.339844 13.96875 13.449219 13.46875 C 13.417969 13.785156 13.394531 14.105469 13.394531 14.425781 C 13.394531 15.601562 13.589844 16.757812 13.980469 17.859375 C 14.132812 18.28125 14.527344 18.546875 14.953125 18.546875 C 15.066406 18.546875 15.183594 18.527344 15.296875 18.488281 C 15.832031 18.296875 16.113281 17.707031 15.925781 17.171875 C 15.613281 16.292969 15.453125 15.367188 15.453125 14.425781 C 15.453125 13.820312 15.523438 13.21875 15.652344 12.632812 C 15.65625 12.621094 15.660156 12.613281 15.664062 12.601562 C 16.515625 8.820312 19.820312 6.183594 23.699219 6.183594 C 24.433594 6.183594 25.171875 6.289062 25.898438 6.492188 C 26.976562 6.792969 28.003906 7.304688 28.878906 8.011719 C 29.070312 8.167969 29.296875 8.242188 29.527344 8.242188 C 29.828125 8.242188 30.125 8.113281 30.328125 7.859375 C 30.6875 7.417969 30.617188 6.769531 30.175781 6.410156 C 29.4375 5.816406 28.613281 5.339844 27.742188 4.964844 C 28.679688 3.464844 30.199219 2.4375 31.941406 2.144531 L 31.941406 20.535156 C 27.882812 20.027344 24.726562 16.558594 24.726562 12.363281 C 24.726562 11.796875 24.265625 11.332031 23.699219 11.332031 C 23.128906 11.332031 22.667969 11.796875 22.667969 12.363281 C 22.667969 13.527344 22.871094 14.644531 23.226562 15.6875 C 21.515625 16.210938 20.1875 17.578125 19.738281 19.320312 C 19.597656 19.871094 19.929688 20.433594 20.480469 20.574219 C 20.566406 20.597656 20.652344 20.605469 20.738281 20.605469 C 21.195312 20.605469 21.613281 20.296875 21.734375 19.832031 C 22.015625 18.746094 22.867188 17.894531 23.953125 17.613281 C 24.003906 17.601562 24.039062 17.570312 24.082031 17.550781 C 25.707031 20.324219 28.585938 22.28125 31.941406 22.613281 L 31.941406 45.402344 C 29.644531 45.691406 27.550781 46.941406 26.207031 48.867188 C 25.882812 49.332031 25.996094 49.976562 26.460938 50.300781 C 26.640625 50.425781 26.847656 50.484375 27.050781 50.484375 C 27.375 50.484375 27.695312 50.332031 27.898438 50.046875 C 28.855469 48.671875 30.320312 47.769531 31.941406 47.492188 L 31.941406 63.796875 C 29.847656 63.445312 28.066406 62.042969 27.246094 60.027344 Z M 61.820312 35.03125 C 60.683594 35.03125 59.757812 34.105469 59.757812 32.972656 C 59.757812 31.835938 60.683594 30.910156 61.820312 30.910156 C 62.957031 30.910156 63.878906 31.835938 63.878906 32.972656 C 63.878906 34.105469 62.957031 35.03125 61.820312 35.03125 Z M 61.820312 35.03125 "/><path style=" stroke:none;fill-rule:nonzero;fill:#ffffff;fill-opacity:1;" d="M 51.515625 9.273438 L 53.578125 9.273438 L 53.578125 11.332031 L 51.515625 11.332031 Z M 51.515625 9.273438 "/><path style=" stroke:none;fill-rule:nonzero;fill:#ffffff;fill-opacity:1;" d="M 55.636719 9.273438 L 61.820312 9.273438 L 61.820312 11.332031 L 55.636719 11.332031 Z M 55.636719 9.273438 "/><path style=" stroke:none;fill-rule:nonzero;fill:#ffffff;fill-opacity:1;" d="M 50.488281 26.789062 L 52.546875 26.789062 L 52.546875 28.847656 L 50.488281 28.847656 Z M 50.488281 26.789062 "/><path style=" stroke:none;fill-rule:nonzero;fill:#ffffff;fill-opacity:1;" d="M 42.242188 26.789062 L 48.425781 26.789062 L 48.425781 28.847656 L 42.242188 28.847656 Z M 42.242188 26.789062 "/><path style=" stroke:none;fill-rule:nonzero;fill:#ffffff;fill-opacity:1;" d="M 59.757812 54.609375 L 61.820312 54.609375 L 61.820312 56.667969 L 59.757812 56.667969 Z M 59.757812 54.609375 "/><path style=" stroke:none;fill-rule:nonzero;fill:#ffffff;fill-opacity:1;" d="M 51.515625 54.609375 L 57.699219 54.609375 L 57.699219 56.667969 L 51.515625 56.667969 Z M 51.515625 54.609375 "/><path style=" stroke:none;fill-rule:nonzero;fill:#ffffff;fill-opacity:1;" d="M 42.242188 37.09375 L 44.304688 37.09375 L 44.304688 39.152344 L 42.242188 39.152344 Z M 42.242188 37.09375 "/><path style=" stroke:none;fill-rule:nonzero;fill:#ffffff;fill-opacity:1;" d="M 46.363281 37.09375 L 52.546875 37.09375 L 52.546875 39.152344 L 46.363281 39.152344 Z M 46.363281 37.09375 "/><path style=" stroke:none;fill-rule:nonzero;fill:#ffffff;fill-opacity:1;" d="M 23.566406 31.941406 C 21.914062 31.941406 20.492188 32.925781 19.835938 34.335938 C 19.269531 33.863281 18.664062 33.433594 17.988281 33.085938 C 17.484375 32.824219 16.859375 33.023438 16.601562 33.527344 C 16.339844 34.03125 16.535156 34.65625 17.042969 34.914062 C 19.796875 36.339844 21.507812 39.148438 21.507812 42.242188 C 21.507812 42.8125 21.96875 43.273438 22.535156 43.273438 C 23.105469 43.273438 23.566406 42.8125 23.566406 42.242188 C 23.566406 39.96875 22.8125 37.828125 21.503906 36.078125 C 21.503906 36.074219 21.507812 36.066406 21.507812 36.0625 C 21.507812 34.925781 22.429688 34 23.566406 34 C 24.136719 34 24.597656 33.539062 24.597656 32.972656 C 24.597656 32.402344 24.136719 31.941406 23.566406 31.941406 Z M 23.566406 31.941406 "/><path style=" stroke:none;fill-rule:nonzero;fill:#ffffff;fill-opacity:1;" d="M 61.820312 28.847656 C 59.90625 28.847656 58.304688 30.167969 57.84375 31.941406 L 34 31.941406 L 34 23.699219 L 45.335938 23.699219 C 45.726562 23.699219 46.082031 23.476562 46.257812 23.128906 L 48.03125 19.578125 L 51.664062 19.578125 C 52.125 21.347656 53.722656 22.667969 55.636719 22.667969 C 57.910156 22.667969 59.757812 20.820312 59.757812 18.546875 C 59.757812 16.273438 57.910156 14.425781 55.636719 14.425781 C 53.722656 14.425781 52.125 15.742188 51.664062 17.515625 L 47.394531 17.515625 C 47.003906 17.515625 46.648438 17.734375 46.472656 18.085938 L 44.699219 21.636719 L 34 21.636719 L 34 14.425781 L 43.273438 14.425781 C 43.644531 14.425781 43.984375 14.226562 44.167969 13.90625 L 47.652344 7.808594 C 48.199219 8.078125 48.804688 8.242188 49.457031 8.242188 C 51.730469 8.242188 53.578125 6.394531 53.578125 4.121094 C 53.578125 1.847656 51.730469 0 49.457031 0 C 47.183594 0 45.335938 1.847656 45.335938 4.121094 C 45.335938 4.984375 45.601562 5.785156 46.058594 6.445312 L 42.675781 12.363281 L 34 12.363281 L 34 1.03125 C 34 0.460938 33.539062 0 32.96875 0 C 29.90625 0 27.148438 1.671875 25.71875 4.324219 C 25.050781 4.191406 24.371094 4.121094 23.699219 4.121094 C 19.128906 4.121094 15.199219 7.054688 13.867188 11.347656 C 8.445312 11.636719 4.121094 16.140625 4.121094 21.636719 C 4.121094 22.585938 4.253906 23.527344 4.519531 24.449219 C 1.710938 26.359375 0 29.550781 0 32.972656 C 0 36.390625 1.710938 39.582031 4.519531 41.492188 C 4.253906 42.414062 4.121094 43.355469 4.121094 44.304688 C 4.121094 49.800781 8.445312 54.304688 13.867188 54.59375 C 15.199219 58.886719 19.128906 61.820312 23.699219 61.820312 C 24.371094 61.820312 25.050781 61.75 25.71875 61.617188 C 27.148438 64.269531 29.90625 65.941406 32.96875 65.941406 C 33.539062 65.941406 34 65.480469 34 64.910156 L 34 53.578125 L 42.675781 53.578125 L 46.058594 59.496094 C 45.601562 60.15625 45.335938 60.957031 45.335938 61.820312 C 45.335938 64.09375 47.183594 65.941406 49.457031 65.941406 C 51.730469 65.941406 53.578125 64.09375 53.578125 61.820312 C 53.578125 59.546875 51.730469 57.699219 49.457031 57.699219 C 48.804688 57.699219 48.199219 57.863281 47.652344 58.132812 L 44.167969 52.035156 C 43.984375 51.714844 43.644531 51.515625 43.273438 51.515625 L 34 51.515625 L 34 44.304688 L 44.699219 44.304688 L 46.472656 47.855469 C 46.648438 48.207031 47.003906 48.425781 47.394531 48.425781 L 51.664062 48.425781 C 52.125 50.199219 53.722656 51.515625 55.636719 51.515625 C 57.910156 51.515625 59.757812 49.667969 59.757812 47.394531 C 59.757812 45.121094 57.910156 43.273438 55.636719 43.273438 C 53.722656 43.273438 52.125 44.59375 51.664062 46.363281 L 48.03125 46.363281 L 46.257812 42.8125 C 46.082031 42.464844 45.726562 42.242188 45.335938 42.242188 L 34 42.242188 L 34 34 L 57.84375 34 C 58.304688 35.773438 59.90625 37.09375 61.820312 37.09375 C 64.09375 37.09375 65.941406 35.242188 65.941406 32.972656 C 65.941406 30.699219 64.09375 28.847656 61.820312 28.847656 Z M 55.636719 16.484375 C 56.773438 16.484375 57.699219 17.410156 57.699219 18.546875 C 57.699219 19.683594 56.773438 20.605469 55.636719 20.605469 C 54.503906 20.605469 53.578125 19.683594 53.578125 18.546875 C 53.578125 17.410156 54.503906 16.484375 55.636719 16.484375 Z M 49.457031 2.0625 C 50.59375 2.0625 51.515625 2.984375 51.515625 4.121094 C 51.515625 5.257812 50.59375 6.183594 49.457031 6.183594 C 48.320312 6.183594 47.394531 5.257812 47.394531 4.121094 C 47.394531 2.984375 48.320312 2.0625 49.457031 2.0625 Z M 51.515625 61.820312 C 51.515625 62.957031 50.59375 63.878906 49.457031 63.878906 C 48.320312 63.878906 47.394531 62.957031 47.394531 61.820312 C 47.394531 60.683594 48.320312 59.757812 49.457031 59.757812 C 50.59375 59.757812 51.515625 60.683594 51.515625 61.820312 Z M 55.636719 45.335938 C 56.773438 45.335938 57.699219 46.257812 57.699219 47.394531 C 57.699219 48.53125 56.773438 49.457031 55.636719 49.457031 C 54.503906 49.457031 53.578125 48.53125 53.578125 47.394531 C 53.578125 46.257812 54.503906 45.335938 55.636719 45.335938 Z M 27.246094 60.027344 C 27.085938 59.628906 26.699219 59.382812 26.292969 59.382812 C 26.195312 59.382812 26.097656 59.398438 26.003906 59.425781 C 25.242188 59.648438 24.46875 59.757812 23.699219 59.757812 C 19.820312 59.757812 16.515625 57.121094 15.664062 53.339844 C 15.660156 53.328125 15.65625 53.320312 15.652344 53.308594 C 15.523438 52.722656 15.453125 52.121094 15.453125 51.515625 C 15.453125 49.878906 15.933594 48.292969 16.84375 46.9375 C 17.160156 46.464844 17.03125 45.824219 16.558594 45.507812 C 16.089844 45.191406 15.445312 45.320312 15.128906 45.792969 C 13.996094 47.488281 13.394531 49.46875 13.394531 51.515625 C 13.394531 51.839844 13.417969 52.164062 13.449219 52.484375 C 9.363281 52 6.183594 48.519531 6.183594 44.304688 C 6.183594 43.324219 6.363281 42.351562 6.714844 41.410156 C 7.316406 39.8125 8.417969 38.40625 9.847656 37.449219 C 10.320312 37.132812 10.445312 36.492188 10.128906 36.019531 C 9.8125 35.546875 9.171875 35.421875 8.699219 35.738281 C 7.273438 36.691406 6.105469 38.007812 5.308594 39.515625 C 3.28125 37.96875 2.0625 35.550781 2.0625 32.972656 C 2.0625 30.007812 3.667969 27.257812 6.257812 25.792969 C 6.3125 25.761719 6.484375 25.664062 6.523438 25.644531 C 7.699219 25.035156 8.972656 24.726562 10.304688 24.726562 C 12.804688 24.726562 15.140625 25.84375 16.714844 27.789062 C 16.917969 28.042969 17.214844 28.171875 17.515625 28.171875 C 17.742188 28.171875 17.972656 28.097656 18.164062 27.941406 C 18.605469 27.585938 18.675781 26.9375 18.316406 26.492188 C 16.347656 24.0625 13.429688 22.667969 10.304688 22.667969 C 8.960938 22.667969 7.632812 22.945312 6.398438 23.449219 C 6.261719 22.851562 6.183594 22.246094 6.183594 21.636719 C 6.183594 17.4375 9.339844 13.96875 13.449219 13.46875 C 13.417969 13.785156 13.394531 14.105469 13.394531 14.425781 C 13.394531 15.601562 13.589844 16.757812 13.980469 17.859375 C 14.132812 18.28125 14.527344 18.546875 14.953125 18.546875 C 15.066406 18.546875 15.183594 18.527344 15.296875 18.488281 C 15.832031 18.296875 16.113281 17.707031 15.925781 17.171875 C 15.613281 16.292969 15.453125 15.367188 15.453125 14.425781 C 15.453125 13.820312 15.523438 13.21875 15.652344 12.632812 C 15.65625 12.621094 15.660156 12.613281 15.664062 12.601562 C 16.515625 8.820312 19.820312 6.183594 23.699219 6.183594 C 24.433594 6.183594 25.171875 6.289062 25.898438 6.492188 C 26.976562 6.792969 28.003906 7.304688 28.878906 8.011719 C 29.070312 8.167969 29.296875 8.242188 29.527344 8.242188 C 29.828125 8.242188 30.125 8.113281 30.328125 7.859375 C 30.6875 7.417969 30.617188 6.769531 30.175781 6.410156 C 29.4375 5.816406 28.613281 5.339844 27.742188 4.964844 C 28.679688 3.464844 30.199219 2.4375 31.941406 2.144531 L 31.941406 20.535156 C 27.882812 20.027344 24.726562 16.558594 24.726562 12.363281 C 24.726562 11.796875 24.265625 11.332031 23.699219 11.332031 C 23.128906 11.332031 22.667969 11.796875 22.667969 12.363281 C 22.667969 13.527344 22.871094 14.644531 23.226562 15.6875 C 21.515625 16.210938 20.1875 17.578125 19.738281 19.320312 C 19.597656 19.871094 19.929688 20.433594 20.480469 20.574219 C 20.566406 20.597656 20.652344 20.605469 20.738281 20.605469 C 21.195312 20.605469 21.613281 20.296875 21.734375 19.832031 C 22.015625 18.746094 22.867188 17.894531 23.953125 17.613281 C 24.003906 17.601562 24.039062 17.570312 24.082031 17.550781 C 25.707031 20.324219 28.585938 22.28125 31.941406 22.613281 L 31.941406 45.402344 C 29.644531 45.691406 27.550781 46.941406 26.207031 48.867188 C 25.882812 49.332031 25.996094 49.976562 26.460938 50.300781 C 26.640625 50.425781 26.847656 50.484375 27.050781 50.484375 C 27.375 50.484375 27.695312 50.332031 27.898438 50.046875 C 28.855469 48.671875 30.320312 47.769531 31.941406 47.492188 L 31.941406 63.796875 C 29.847656 63.445312 28.066406 62.042969 27.246094 60.027344 Z M 61.820312 35.03125 C 60.683594 35.03125 59.757812 34.105469 59.757812 32.972656 C 59.757812 31.835938 60.683594 30.910156 61.820312 30.910156 C 62.957031 30.910156 63.878906 31.835938 63.878906 32.972656 C 63.878906 34.105469 62.957031 35.03125 61.820312 35.03125 Z M 61.820312 35.03125 "/><path style=" stroke:none;fill-rule:nonzero;fill:#ffffff;fill-opacity:1;" d="M 51.515625 9.273438 L 53.578125 9.273438 L 53.578125 11.332031 L 51.515625 11.332031 Z M 51.515625 9.273438 "/><path style=" stroke:none;fill-rule:nonzero;fill:#ffffff;fill-opacity:1;" d="M 55.636719 9.273438 L 61.820312 9.273438 L 61.820312 11.332031 L 55.636719 11.332031 Z M 55.636719 9.273438 "/><path style=" stroke:none;fill-rule:nonzero;fill:#ffffff;fill-opacity:1;" d="M 50.488281 26.789062 L 52.546875 26.789062 L 52.546875 28.847656 L 50.488281 28.847656 Z M 50.488281 26.789062 "/><path style=" stroke:none;fill-rule:nonzero;fill:#ffffff;fill-opacity:1;" d="M 42.242188 26.789062 L 48.425781 26.789062 L 48.425781 28.847656 L 42.242188 28.847656 Z M 42.242188 26.789062 "/><path style=" stroke:none;fill-rule:nonzero;fill:#ffffff;fill-opacity:1;" d="M 59.757812 54.609375 L 61.820312 54.609375 L 61.820312 56.667969 L 59.757812 56.667969 Z M 59.757812 54.609375 "/><path style=" stroke:none;fill-rule:nonzero;fill:#ffffff;fill-opacity:1;" d="M 51.515625 54.609375 L 57.699219 54.609375 L 57.699219 56.667969 L 51.515625 56.667969 Z M 51.515625 54.609375 "/><path style=" stroke:none;fill-rule:nonzero;fill:#ffffff;fill-opacity:1;" d="M 42.242188 37.09375 L 44.304688 37.09375 L 44.304688 39.152344 L 42.242188 39.152344 Z M 42.242188 37.09375 "/><path style=" stroke:none;fill-rule:nonzero;fill:#ffffff;fill-opacity:1;" d="M 46.363281 37.09375 L 52.546875 37.09375 L 52.546875 39.152344 L 46.363281 39.152344 Z M 46.363281 37.09375 "/></g></svg>