<svg xmlns="http://www.w3.org/2000/svg" xmlns:xlink="http://www.w3.org/1999/xlink" width="77" zoomAndPan="magnify" viewBox="0 0 57.75 59.249999" height="79" preserveAspectRatio="xMidYMid meet" version="1.2"><defs><clipPath id="4016a85c8f"><path d="M 34 34 L 56.523438 34 L 56.523438 52 L 34 52 Z M 34 34 "/></clipPath><clipPath id="38dec81982"><path d="M 19 45 L 38 45 L 38 57.769531 L 19 57.769531 Z M 19 45 "/></clipPath><clipPath id="efa1af2d9e"><path d="M 0.238281 34 L 22 34 L 22 52 L 0.238281 52 Z M 0.238281 34 "/></clipPath><clipPath id="ee4d1792a8"><path d="M 34 34 L 56.523438 34 L 56.523438 52 L 34 52 Z M 34 34 "/></clipPath><clipPath id="6ed6f42bfe"><path d="M 19 45 L 38 45 L 38 57.769531 L 19 57.769531 Z M 19 45 "/></clipPath><clipPath id="e08a6b44c9"><path d="M 0.238281 34 L 22 34 L 22 52 L 0.238281 52 Z M 0.238281 34 "/></clipPath></defs><g id="27588593ad"><path style=" stroke:none;fill-rule:evenodd;fill:#ffffff;fill-opacity:1;" d="M 14.996094 24.347656 C 14.589844 24.347656 14.265625 24.675781 14.265625 25.078125 C 14.265625 25.480469 14.59375 25.808594 14.996094 25.808594 L 35.140625 25.808594 C 35.542969 25.808594 35.875 25.484375 35.875 25.078125 C 35.875 24.671875 35.546875 24.34375 35.140625 24.347656 Z M 14.996094 24.347656 "/><path style=" stroke:none;fill-rule:evenodd;fill:#ffffff;fill-opacity:1;" d="M 11.511719 0.105469 C 11.105469 0.109375 10.78125 0.433594 10.78125 0.835938 L 10.78125 21.570312 C 10.777344 21.976562 11.105469 22.304688 11.511719 22.308594 C 11.914062 22.308594 12.242188 21.976562 12.242188 21.570312 L 12.242188 1.574219 L 44.453125 1.574219 L 44.453125 4.027344 C 44.453125 4.433594 44.78125 4.761719 45.183594 4.765625 C 45.589844 4.765625 45.917969 4.433594 45.917969 4.027344 L 45.917969 0.835938 C 45.914062 0.433594 45.589844 0.105469 45.183594 0.105469 Z M 11.511719 0.105469 "/><path style=" stroke:none;fill-rule:evenodd;fill:#ffffff;fill-opacity:1;" d="M 22.417969 10.511719 C 22.203125 10.523438 22.003906 10.632812 21.871094 10.804688 C 21.632812 11.128906 21.699219 11.589844 22.023438 11.828125 L 28.628906 16.753906 C 28.464844 17.1875 28.429688 17.632812 28.503906 18.027344 C 28.621094 18.625 28.9375 19.109375 29.367188 19.433594 L 34.066406 22.933594 C 34.925781 23.574219 36.105469 23.574219 36.960938 22.933594 L 38.277344 21.953125 L 38.277344 28.210938 C 38.273438 28.613281 38.601562 28.945312 39.007812 28.945312 C 39.414062 28.949219 39.746094 28.617188 39.742188 28.210938 L 39.742188 20.496094 C 39.746094 19.890625 39.054688 19.546875 38.566406 19.90625 L 36.082031 21.757812 C 35.652344 22.078125 35.234375 21.976562 34.945312 21.765625 L 30.242188 18.257812 C 30.132812 18.175781 29.984375 17.972656 29.945312 17.753906 C 29.898438 17.535156 29.921875 17.300781 30.148438 17.003906 C 30.308594 16.792969 30.53125 16.621094 30.71875 16.566406 C 30.90625 16.507812 31.0625 16.5 31.382812 16.738281 L 35.078125 19.488281 C 35.335938 19.683594 35.695312 19.683594 35.957031 19.488281 L 39.644531 16.738281 C 39.894531 16.554688 40.136719 16.453125 40.21875 16.453125 L 46.257812 16.453125 C 46.449219 16.453125 46.773438 16.628906 46.992188 16.890625 L 50.699219 22.167969 C 50.957031 22.480469 51.421875 22.523438 51.734375 22.261719 C 52.042969 22.003906 52.085938 21.542969 51.828125 21.234375 L 48.121094 15.960938 C 47.699219 15.449219 47.066406 14.988281 46.257812 14.988281 L 40.21875 14.988281 C 39.574219 14.988281 39.109375 15.3125 38.769531 15.5625 L 35.515625 17.992188 L 32.257812 15.558594 C 31.636719 15.097656 30.890625 14.984375 30.304688 15.160156 C 29.996094 15.25 29.730469 15.402344 29.503906 15.582031 L 22.898438 10.65625 C 22.761719 10.554688 22.589844 10.503906 22.417969 10.511719 Z M 22.417969 10.511719 "/><path style=" stroke:none;fill-rule:evenodd;fill:#ffffff;fill-opacity:1;" d="M 45.667969 20.164062 L 46.335938 21.542969 C 46.546875 21.894531 46.875 22.027344 47.222656 21.8125 C 47.566406 21.601562 47.5625 21.246094 47.347656 20.902344 L 46.476562 19.628906 C 46.003906 18.9375 45.367188 19.546875 45.667969 20.164062 Z M 45.667969 20.164062 "/><path style=" stroke:none;fill-rule:evenodd;fill:#ffffff;fill-opacity:1;" d="M 45.949219 8.542969 C 46.601562 10.039062 45.910156 11.765625 44.410156 12.414062 C 42.902344 13.066406 41.179688 12.378906 40.53125 10.875 C 39.882812 9.371094 40.558594 7.652344 42.070312 7.003906 L 42.070312 6.996094 C 42.820312 6.671875 43.628906 6.683594 44.328125 6.960938 C 45.03125 7.242188 45.625 7.789062 45.949219 8.542969 Z M 41.527344 5.738281 C 39.339844 6.675781 38.328125 9.238281 39.265625 11.417969 C 40.210938 13.609375 42.769531 14.621094 44.957031 13.679688 C 47.144531 12.734375 48.160156 10.179688 47.214844 7.996094 C 46.742188 6.90625 45.859375 6.105469 44.832031 5.695312 C 43.804688 5.285156 42.621094 5.265625 41.527344 5.738281 Z M 41.527344 5.738281 "/><g clip-rule="nonzero" clip-path="url(#4016a85c8f)"><path style=" stroke:none;fill-rule:nonzero;fill:#ffffff;fill-opacity:1;" d="M 50.941406 35.730469 L 50.9375 35.730469 L 48.46875 35.734375 C 48.128906 35.738281 47.292969 36.144531 46.75 36.734375 L 42.683594 41.171875 C 42.546875 41.324219 42.347656 41.410156 42.140625 41.40625 L 37.71875 41.40625 C 37.195312 41.40625 36.894531 41.574219 36.683594 41.804688 C 36.46875 42.035156 36.347656 42.363281 36.347656 42.699219 C 36.347656 43.035156 36.46875 43.363281 36.683594 43.59375 C 36.894531 43.824219 37.195312 43.992188 37.71875 43.992188 L 42.976562 43.992188 C 43.375 43.992188 43.707031 43.839844 43.878906 43.625 L 45.351562 41.753906 C 45.738281 41.265625 46.523438 41.457031 46.644531 42.0625 L 48.253906 50.359375 L 54.796875 50.359375 L 52.238281 37.273438 C 52.144531 36.792969 51.960938 36.371094 51.742188 36.113281 C 51.523438 35.855469 51.308594 35.730469 50.941406 35.730469 Z M 50.9375 34.265625 C 51.722656 34.265625 52.414062 34.640625 52.855469 35.164062 C 53.300781 35.6875 53.550781 36.328125 53.679688 36.992188 L 56.402344 50.949219 C 56.488281 51.398438 56.144531 51.820312 55.6875 51.820312 L 47.648438 51.820312 C 47.300781 51.820312 47.003906 51.570312 46.933594 51.234375 L 45.511719 43.910156 L 44.914062 44.660156 C 44.398438 45.167969 43.703125 45.453125 42.980469 45.453125 L 37.722656 45.453125 C 36.84375 45.453125 36.089844 45.117188 35.605469 44.585938 C 35.117188 44.058594 34.882812 43.375 34.882812 42.695312 C 34.882812 42.023438 35.117188 41.335938 35.605469 40.8125 C 36.089844 40.28125 36.84375 39.945312 37.722656 39.945312 L 41.824219 39.945312 L 45.675781 35.742188 C 46.429688 34.917969 47.402344 34.273438 48.46875 34.273438 Z M 50.9375 34.265625 "/></g><g clip-rule="nonzero" clip-path="url(#38dec81982)"><path style=" stroke:none;fill-rule:nonzero;fill:#ffffff;fill-opacity:1;" d="M 24.714844 47.304688 L 31.984375 47.304688 C 33.644531 47.304688 35.070312 48.582031 35.605469 49.816406 C 36.207031 51.21875 36.25 52.722656 36.089844 53.585938 C 35.902344 54.582031 35.765625 54.964844 35.496094 55.355469 C 35.300781 55.644531 34.832031 55.976562 34.527344 56.085938 L 22.167969 56.085938 C 21.863281 55.976562 21.386719 55.644531 21.191406 55.355469 C 20.925781 54.96875 20.792969 54.582031 20.605469 53.585938 C 20.441406 52.722656 20.488281 51.21875 21.089844 49.816406 C 21.625 48.585938 23.054688 47.304688 24.714844 47.304688 Z M 24.714844 45.84375 C 22.34375 45.84375 20.5 47.492188 19.746094 49.234375 C 19.007812 50.945312 18.941406 52.667969 19.164062 53.859375 C 19.363281 54.917969 19.570312 55.585938 19.980469 56.183594 C 20.410156 56.8125 21.058594 57.300781 21.792969 57.519531 C 21.859375 57.539062 21.929688 57.550781 21.996094 57.550781 L 34.699219 57.550781 C 34.769531 57.550781 34.835938 57.539062 34.902344 57.519531 C 35.640625 57.300781 36.28125 56.8125 36.707031 56.183594 C 37.117188 55.589844 37.332031 54.917969 37.53125 53.859375 C 37.753906 52.667969 37.6875 50.945312 36.949219 49.234375 C 36.195312 47.488281 34.355469 45.84375 31.984375 45.84375 Z M 24.714844 45.84375 "/></g><path style=" stroke:none;fill-rule:evenodd;fill:#ffffff;fill-opacity:1;" d="M 32.152344 37.632812 C 33.058594 39.730469 32.101562 42.15625 30.003906 43.0625 C 27.890625 43.96875 25.464844 43.007812 24.558594 40.902344 C 23.652344 38.800781 24.609375 36.390625 26.71875 35.476562 C 27.765625 35.027344 28.902344 35.035156 29.882812 35.425781 C 30.863281 35.8125 31.695312 36.582031 32.152344 37.632812 Z M 26.144531 34.128906 C 23.304688 35.347656 21.992188 38.65625 23.214844 41.488281 C 24.4375 44.320312 27.742188 45.625 30.578125 44.40625 C 33.410156 43.1875 34.714844 39.878906 33.496094 37.054688 C 32.886719 35.636719 31.753906 34.597656 30.421875 34.074219 C 29.085938 33.542969 27.554688 33.519531 26.144531 34.128906 Z M 26.144531 34.128906 "/><path style=" stroke:none;fill-rule:nonzero;fill:#ffffff;fill-opacity:1;" d="M 43.675781 46.070312 C 43.597656 46.0625 43.519531 46.066406 43.445312 46.082031 C 43.046875 46.160156 42.789062 46.542969 42.867188 46.941406 L 43.53125 50.355469 L 38.996094 50.355469 C 38.589844 50.355469 38.261719 50.683594 38.261719 51.085938 C 38.257812 51.492188 38.585938 51.824219 38.996094 51.824219 L 44.421875 51.824219 C 44.878906 51.820312 45.222656 51.398438 45.136719 50.949219 L 44.308594 46.660156 C 44.246094 46.347656 43.992188 46.109375 43.675781 46.074219 Z M 43.675781 46.070312 "/><path style=" stroke:none;fill-rule:nonzero;fill:#ffffff;fill-opacity:1;" d="M 16.148438 30.417969 C 15.800781 30.417969 15.496094 30.667969 15.429688 31.011719 L 14.152344 37.574219 C 14.074219 37.96875 14.335938 38.355469 14.734375 38.429688 C 15.132812 38.507812 15.515625 38.25 15.589844 37.851562 L 16.75 31.886719 L 39.9375 31.886719 L 41.097656 37.851562 C 41.175781 38.25 41.5625 38.511719 41.960938 38.429688 C 42.355469 38.351562 42.617188 37.96875 42.539062 37.574219 L 41.265625 31.011719 C 41.199219 30.667969 40.898438 30.417969 40.542969 30.417969 Z M 16.148438 30.417969 "/><path style=" stroke:none;fill-rule:evenodd;fill:#ffffff;fill-opacity:1;" d="M 12.175781 26.277344 C 13.042969 28.273438 12.128906 30.582031 10.132812 31.445312 C 8.128906 32.308594 5.820312 31.394531 4.957031 29.390625 C 4.09375 27.394531 5.007812 25.089844 7.011719 24.222656 C 8.015625 23.792969 9.089844 23.8125 10.023438 24.179688 C 10.957031 24.550781 11.746094 25.277344 12.175781 26.277344 Z M 6.429688 22.878906 C 3.699219 24.058594 2.433594 27.246094 3.613281 29.96875 C 4.792969 32.699219 7.980469 33.964844 10.707031 32.789062 C 13.4375 31.613281 14.699219 28.421875 13.523438 25.695312 C 12.933594 24.332031 11.839844 23.332031 10.558594 22.824219 C 9.273438 22.316406 7.792969 22.292969 6.429688 22.878906 Z M 6.429688 22.878906 "/><path style=" stroke:none;fill-rule:evenodd;fill:#ffffff;fill-opacity:1;" d="M 49.683594 24.222656 C 51.691406 25.089844 52.601562 27.394531 51.738281 29.390625 C 50.875 31.394531 48.570312 32.308594 46.5625 31.445312 C 44.566406 30.582031 43.652344 28.273438 44.519531 26.277344 C 44.949219 25.277344 45.738281 24.550781 46.671875 24.179688 C 47.605469 23.808594 48.683594 23.792969 49.683594 24.222656 Z M 43.171875 25.695312 C 41.996094 28.421875 43.253906 31.613281 45.980469 32.789062 C 48.714844 33.964844 51.902344 32.699219 53.085938 29.96875 C 54.257812 27.246094 52.992188 24.058594 50.257812 22.878906 C 48.898438 22.292969 47.417969 22.316406 46.136719 22.824219 C 44.847656 23.335938 43.761719 24.332031 43.171875 25.695312 Z M 43.171875 25.695312 "/><g clip-rule="nonzero" clip-path="url(#efa1af2d9e)"><path style=" stroke:none;fill-rule:nonzero;fill:#ffffff;fill-opacity:1;" d="M 5.753906 35.730469 L 5.757812 35.730469 L 8.222656 35.734375 C 8.566406 35.738281 9.402344 36.144531 9.941406 36.734375 L 14.007812 41.171875 C 14.148438 41.324219 14.34375 41.410156 14.550781 41.40625 L 18.976562 41.40625 C 19.5 41.40625 19.800781 41.574219 20.015625 41.804688 C 20.226562 42.035156 20.347656 42.363281 20.347656 42.699219 C 20.347656 43.035156 20.226562 43.363281 20.015625 43.59375 C 19.800781 43.824219 19.5 43.992188 18.976562 43.992188 L 13.71875 43.992188 C 13.316406 43.992188 12.984375 43.839844 12.816406 43.625 L 11.34375 41.753906 C 10.957031 41.265625 10.175781 41.457031 10.050781 42.0625 L 8.441406 50.359375 L 1.902344 50.359375 L 4.457031 37.273438 C 4.550781 36.792969 4.734375 36.371094 4.953125 36.113281 C 5.171875 35.855469 5.386719 35.730469 5.753906 35.730469 Z M 5.757812 34.265625 C 4.96875 34.265625 4.28125 34.640625 3.835938 35.164062 C 3.390625 35.6875 3.144531 36.328125 3.015625 36.992188 L 0.292969 50.949219 C 0.203125 51.402344 0.546875 51.820312 1.007812 51.820312 L 9.046875 51.820312 C 9.394531 51.820312 9.691406 51.574219 9.757812 51.234375 L 11.179688 43.910156 L 11.78125 44.660156 C 12.296875 45.167969 12.988281 45.453125 13.710938 45.453125 L 18.976562 45.453125 C 19.851562 45.453125 20.605469 45.117188 21.089844 44.585938 C 21.582031 44.058594 21.8125 43.375 21.8125 42.699219 C 21.8125 42.023438 21.582031 41.339844 21.089844 40.8125 C 20.605469 40.28125 19.851562 39.945312 18.976562 39.945312 L 14.871094 39.945312 L 11.019531 35.742188 C 10.265625 34.917969 9.292969 34.277344 8.222656 34.273438 Z M 5.757812 34.265625 "/></g><path style=" stroke:none;fill-rule:evenodd;fill:#ffffff;fill-opacity:1;" d="M 13.246094 46.082031 C 12.847656 46.003906 12.464844 46.261719 12.386719 46.660156 L 11.554688 50.949219 C 11.464844 51.398438 11.8125 51.824219 12.273438 51.820312 L 17.703125 51.820312 C 18.105469 51.820312 18.429688 51.492188 18.429688 51.085938 C 18.425781 50.683594 18.105469 50.355469 17.703125 50.355469 L 13.164062 50.355469 L 13.828125 46.9375 C 13.90625 46.539062 13.644531 46.15625 13.246094 46.082031 Z M 13.246094 46.082031 "/><path style=" stroke:none;fill-rule:evenodd;fill:#ffffff;fill-opacity:1;" d="M 14.996094 24.347656 C 14.589844 24.347656 14.265625 24.675781 14.265625 25.078125 C 14.265625 25.480469 14.59375 25.808594 14.996094 25.808594 L 35.140625 25.808594 C 35.542969 25.808594 35.875 25.484375 35.875 25.078125 C 35.875 24.671875 35.546875 24.34375 35.140625 24.347656 Z M 14.996094 24.347656 "/><path style=" stroke:none;fill-rule:evenodd;fill:#ffffff;fill-opacity:1;" d="M 11.511719 0.105469 C 11.105469 0.109375 10.78125 0.433594 10.78125 0.835938 L 10.78125 21.570312 C 10.777344 21.976562 11.105469 22.304688 11.511719 22.308594 C 11.914062 22.308594 12.242188 21.976562 12.242188 21.570312 L 12.242188 1.574219 L 44.453125 1.574219 L 44.453125 4.027344 C 44.453125 4.433594 44.78125 4.761719 45.183594 4.765625 C 45.589844 4.765625 45.917969 4.433594 45.917969 4.027344 L 45.917969 0.835938 C 45.914062 0.433594 45.589844 0.105469 45.183594 0.105469 Z M 11.511719 0.105469 "/><path style=" stroke:none;fill-rule:evenodd;fill:#ffffff;fill-opacity:1;" d="M 22.417969 10.511719 C 22.203125 10.523438 22.003906 10.632812 21.871094 10.804688 C 21.632812 11.128906 21.699219 11.589844 22.023438 11.828125 L 28.628906 16.753906 C 28.464844 17.1875 28.429688 17.632812 28.503906 18.027344 C 28.621094 18.625 28.9375 19.109375 29.367188 19.433594 L 34.066406 22.933594 C 34.925781 23.574219 36.105469 23.574219 36.960938 22.933594 L 38.277344 21.953125 L 38.277344 28.210938 C 38.273438 28.613281 38.601562 28.945312 39.007812 28.945312 C 39.414062 28.949219 39.746094 28.617188 39.742188 28.210938 L 39.742188 20.496094 C 39.746094 19.890625 39.054688 19.546875 38.566406 19.90625 L 36.082031 21.757812 C 35.652344 22.078125 35.234375 21.976562 34.945312 21.765625 L 30.242188 18.257812 C 30.132812 18.175781 29.984375 17.972656 29.945312 17.753906 C 29.898438 17.535156 29.921875 17.300781 30.148438 17.003906 C 30.308594 16.792969 30.53125 16.621094 30.71875 16.566406 C 30.90625 16.507812 31.0625 16.5 31.382812 16.738281 L 35.078125 19.488281 C 35.335938 19.683594 35.695312 19.683594 35.957031 19.488281 L 39.644531 16.738281 C 39.894531 16.554688 40.136719 16.453125 40.21875 16.453125 L 46.257812 16.453125 C 46.449219 16.453125 46.773438 16.628906 46.992188 16.890625 L 50.699219 22.167969 C 50.957031 22.480469 51.421875 22.523438 51.734375 22.261719 C 52.042969 22.003906 52.085938 21.542969 51.828125 21.234375 L 48.121094 15.960938 C 47.699219 15.449219 47.066406 14.988281 46.257812 14.988281 L 40.21875 14.988281 C 39.574219 14.988281 39.109375 15.3125 38.769531 15.5625 L 35.515625 17.992188 L 32.257812 15.558594 C 31.636719 15.097656 30.890625 14.984375 30.304688 15.160156 C 29.996094 15.25 29.730469 15.402344 29.503906 15.582031 L 22.898438 10.65625 C 22.761719 10.554688 22.589844 10.503906 22.417969 10.511719 Z M 22.417969 10.511719 "/><path style=" stroke:none;fill-rule:evenodd;fill:#ffffff;fill-opacity:1;" d="M 45.667969 20.164062 L 46.335938 21.542969 C 46.546875 21.894531 46.875 22.027344 47.222656 21.8125 C 47.566406 21.601562 47.5625 21.246094 47.347656 20.902344 L 46.476562 19.628906 C 46.003906 18.9375 45.367188 19.546875 45.667969 20.164062 Z M 45.667969 20.164062 "/><path style=" stroke:none;fill-rule:evenodd;fill:#ffffff;fill-opacity:1;" d="M 45.949219 8.542969 C 46.601562 10.039062 45.910156 11.765625 44.410156 12.414062 C 42.902344 13.066406 41.179688 12.378906 40.53125 10.875 C 39.882812 9.371094 40.558594 7.652344 42.070312 7.003906 L 42.070312 6.996094 C 42.820312 6.671875 43.628906 6.683594 44.328125 6.960938 C 45.03125 7.242188 45.625 7.789062 45.949219 8.542969 Z M 41.527344 5.738281 C 39.339844 6.675781 38.328125 9.238281 39.265625 11.417969 C 40.210938 13.609375 42.769531 14.621094 44.957031 13.679688 C 47.144531 12.734375 48.160156 10.179688 47.214844 7.996094 C 46.742188 6.90625 45.859375 6.105469 44.832031 5.695312 C 43.804688 5.285156 42.621094 5.265625 41.527344 5.738281 Z M 41.527344 5.738281 "/><g clip-rule="nonzero" clip-path="url(#ee4d1792a8)"><path style=" stroke:none;fill-rule:nonzero;fill:#ffffff;fill-opacity:1;" d="M 50.941406 35.730469 L 50.9375 35.730469 L 48.46875 35.734375 C 48.128906 35.738281 47.292969 36.144531 46.75 36.734375 L 42.683594 41.171875 C 42.546875 41.324219 42.347656 41.410156 42.140625 41.40625 L 37.71875 41.40625 C 37.195312 41.40625 36.894531 41.574219 36.683594 41.804688 C 36.46875 42.035156 36.347656 42.363281 36.347656 42.699219 C 36.347656 43.035156 36.46875 43.363281 36.683594 43.59375 C 36.894531 43.824219 37.195312 43.992188 37.71875 43.992188 L 42.976562 43.992188 C 43.375 43.992188 43.707031 43.839844 43.878906 43.625 L 45.351562 41.753906 C 45.738281 41.265625 46.523438 41.457031 46.644531 42.0625 L 48.253906 50.359375 L 54.796875 50.359375 L 52.238281 37.273438 C 52.144531 36.792969 51.960938 36.371094 51.742188 36.113281 C 51.523438 35.855469 51.308594 35.730469 50.941406 35.730469 Z M 50.9375 34.265625 C 51.722656 34.265625 52.414062 34.640625 52.855469 35.164062 C 53.300781 35.6875 53.550781 36.328125 53.679688 36.992188 L 56.402344 50.949219 C 56.488281 51.398438 56.144531 51.820312 55.6875 51.820312 L 47.648438 51.820312 C 47.300781 51.820312 47.003906 51.570312 46.933594 51.234375 L 45.511719 43.910156 L 44.914062 44.660156 C 44.398438 45.167969 43.703125 45.453125 42.980469 45.453125 L 37.722656 45.453125 C 36.84375 45.453125 36.089844 45.117188 35.605469 44.585938 C 35.117188 44.058594 34.882812 43.375 34.882812 42.695312 C 34.882812 42.023438 35.117188 41.335938 35.605469 40.8125 C 36.089844 40.28125 36.84375 39.945312 37.722656 39.945312 L 41.824219 39.945312 L 45.675781 35.742188 C 46.429688 34.917969 47.402344 34.273438 48.46875 34.273438 Z M 50.9375 34.265625 "/></g><g clip-rule="nonzero" clip-path="url(#6ed6f42bfe)"><path style=" stroke:none;fill-rule:nonzero;fill:#ffffff;fill-opacity:1;" d="M 24.714844 47.304688 L 31.984375 47.304688 C 33.644531 47.304688 35.070312 48.582031 35.605469 49.816406 C 36.207031 51.21875 36.25 52.722656 36.089844 53.585938 C 35.902344 54.582031 35.765625 54.964844 35.496094 55.355469 C 35.300781 55.644531 34.832031 55.976562 34.527344 56.085938 L 22.167969 56.085938 C 21.863281 55.976562 21.386719 55.644531 21.191406 55.355469 C 20.925781 54.96875 20.792969 54.582031 20.605469 53.585938 C 20.441406 52.722656 20.488281 51.21875 21.089844 49.816406 C 21.625 48.585938 23.054688 47.304688 24.714844 47.304688 Z M 24.714844 45.84375 C 22.34375 45.84375 20.5 47.492188 19.746094 49.234375 C 19.007812 50.945312 18.941406 52.667969 19.164062 53.859375 C 19.363281 54.917969 19.570312 55.585938 19.980469 56.183594 C 20.410156 56.8125 21.058594 57.300781 21.792969 57.519531 C 21.859375 57.539062 21.929688 57.550781 21.996094 57.550781 L 34.699219 57.550781 C 34.769531 57.550781 34.835938 57.539062 34.902344 57.519531 C 35.640625 57.300781 36.28125 56.8125 36.707031 56.183594 C 37.117188 55.589844 37.332031 54.917969 37.53125 53.859375 C 37.753906 52.667969 37.6875 50.945312 36.949219 49.234375 C 36.195312 47.488281 34.355469 45.84375 31.984375 45.84375 Z M 24.714844 45.84375 "/></g><path style=" stroke:none;fill-rule:evenodd;fill:#ffffff;fill-opacity:1;" d="M 32.152344 37.632812 C 33.058594 39.730469 32.101562 42.15625 30.003906 43.0625 C 27.890625 43.96875 25.464844 43.007812 24.558594 40.902344 C 23.652344 38.800781 24.609375 36.390625 26.71875 35.476562 C 27.765625 35.027344 28.902344 35.035156 29.882812 35.425781 C 30.863281 35.8125 31.695312 36.582031 32.152344 37.632812 Z M 26.144531 34.128906 C 23.304688 35.347656 21.992188 38.65625 23.214844 41.488281 C 24.4375 44.320312 27.742188 45.625 30.578125 44.40625 C 33.410156 43.1875 34.714844 39.878906 33.496094 37.054688 C 32.886719 35.636719 31.753906 34.597656 30.421875 34.074219 C 29.085938 33.542969 27.554688 33.519531 26.144531 34.128906 Z M 26.144531 34.128906 "/><path style=" stroke:none;fill-rule:nonzero;fill:#ffffff;fill-opacity:1;" d="M 43.675781 46.070312 C 43.597656 46.0625 43.519531 46.066406 43.445312 46.082031 C 43.046875 46.160156 42.789062 46.542969 42.867188 46.941406 L 43.53125 50.355469 L 38.996094 50.355469 C 38.589844 50.355469 38.261719 50.683594 38.261719 51.085938 C 38.257812 51.492188 38.585938 51.824219 38.996094 51.824219 L 44.421875 51.824219 C 44.878906 51.820312 45.222656 51.398438 45.136719 50.949219 L 44.308594 46.660156 C 44.246094 46.347656 43.992188 46.109375 43.675781 46.074219 Z M 43.675781 46.070312 "/><path style=" stroke:none;fill-rule:nonzero;fill:#ffffff;fill-opacity:1;" d="M 16.148438 30.417969 C 15.800781 30.417969 15.496094 30.667969 15.429688 31.011719 L 14.152344 37.574219 C 14.074219 37.96875 14.335938 38.355469 14.734375 38.429688 C 15.132812 38.507812 15.515625 38.25 15.589844 37.851562 L 16.75 31.886719 L 39.9375 31.886719 L 41.097656 37.851562 C 41.175781 38.25 41.5625 38.511719 41.960938 38.429688 C 42.355469 38.351562 42.617188 37.96875 42.539062 37.574219 L 41.265625 31.011719 C 41.199219 30.667969 40.898438 30.417969 40.542969 30.417969 Z M 16.148438 30.417969 "/><path style=" stroke:none;fill-rule:evenodd;fill:#ffffff;fill-opacity:1;" d="M 12.175781 26.277344 C 13.042969 28.273438 12.128906 30.582031 10.132812 31.445312 C 8.128906 32.308594 5.820312 31.394531 4.957031 29.390625 C 4.09375 27.394531 5.007812 25.089844 7.011719 24.222656 C 8.015625 23.792969 9.089844 23.8125 10.023438 24.179688 C 10.957031 24.550781 11.746094 25.277344 12.175781 26.277344 Z M 6.429688 22.878906 C 3.699219 24.058594 2.433594 27.246094 3.613281 29.96875 C 4.792969 32.699219 7.980469 33.964844 10.707031 32.789062 C 13.4375 31.613281 14.699219 28.421875 13.523438 25.695312 C 12.933594 24.332031 11.839844 23.332031 10.558594 22.824219 C 9.273438 22.316406 7.792969 22.292969 6.429688 22.878906 Z M 6.429688 22.878906 "/><path style=" stroke:none;fill-rule:evenodd;fill:#ffffff;fill-opacity:1;" d="M 49.683594 24.222656 C 51.691406 25.089844 52.601562 27.394531 51.738281 29.390625 C 50.875 31.394531 48.570312 32.308594 46.5625 31.445312 C 44.566406 30.582031 43.652344 28.273438 44.519531 26.277344 C 44.949219 25.277344 45.738281 24.550781 46.671875 24.179688 C 47.605469 23.808594 48.683594 23.792969 49.683594 24.222656 Z M 43.171875 25.695312 C 41.996094 28.421875 43.253906 31.613281 45.980469 32.789062 C 48.714844 33.964844 51.902344 32.699219 53.085938 29.96875 C 54.257812 27.246094 52.992188 24.058594 50.257812 22.878906 C 48.898438 22.292969 47.417969 22.316406 46.136719 22.824219 C 44.847656 23.335938 43.761719 24.332031 43.171875 25.695312 Z M 43.171875 25.695312 "/><g clip-rule="nonzero" clip-path="url(#e08a6b44c9)"><path style=" stroke:none;fill-rule:nonzero;fill:#ffffff;fill-opacity:1;" d="M 5.753906 35.730469 L 5.757812 35.730469 L 8.222656 35.734375 C 8.566406 35.738281 9.402344 36.144531 9.941406 36.734375 L 14.007812 41.171875 C 14.148438 41.324219 14.34375 41.410156 14.550781 41.40625 L 18.976562 41.40625 C 19.5 41.40625 19.800781 41.574219 20.015625 41.804688 C 20.226562 42.035156 20.347656 42.363281 20.347656 42.699219 C 20.347656 43.035156 20.226562 43.363281 20.015625 43.59375 C 19.800781 43.824219 19.5 43.992188 18.976562 43.992188 L 13.71875 43.992188 C 13.316406 43.992188 12.984375 43.839844 12.816406 43.625 L 11.34375 41.753906 C 10.957031 41.265625 10.175781 41.457031 10.050781 42.0625 L 8.441406 50.359375 L 1.902344 50.359375 L 4.457031 37.273438 C 4.550781 36.792969 4.734375 36.371094 4.953125 36.113281 C 5.171875 35.855469 5.386719 35.730469 5.753906 35.730469 Z M 5.757812 34.265625 C 4.96875 34.265625 4.28125 34.640625 3.835938 35.164062 C 3.390625 35.6875 3.144531 36.328125 3.015625 36.992188 L 0.292969 50.949219 C 0.203125 51.402344 0.546875 51.820312 1.007812 51.820312 L 9.046875 51.820312 C 9.394531 51.820312 9.691406 51.574219 9.757812 51.234375 L 11.179688 43.910156 L 11.78125 44.660156 C 12.296875 45.167969 12.988281 45.453125 13.710938 45.453125 L 18.976562 45.453125 C 19.851562 45.453125 20.605469 45.117188 21.089844 44.585938 C 21.582031 44.058594 21.8125 43.375 21.8125 42.699219 C 21.8125 42.023438 21.582031 41.339844 21.089844 40.8125 C 20.605469 40.28125 19.851562 39.945312 18.976562 39.945312 L 14.871094 39.945312 L 11.019531 35.742188 C 10.265625 34.917969 9.292969 34.277344 8.222656 34.273438 Z M 5.757812 34.265625 "/></g><path style=" stroke:none;fill-rule:evenodd;fill:#ffffff;fill-opacity:1;" d="M 13.246094 46.082031 C 12.847656 46.003906 12.464844 46.261719 12.386719 46.660156 L 11.554688 50.949219 C 11.464844 51.398438 11.8125 51.824219 12.273438 51.820312 L 17.703125 51.820312 C 18.105469 51.820312 18.429688 51.492188 18.429688 51.085938 C 18.425781 50.683594 18.105469 50.355469 17.703125 50.355469 L 13.164062 50.355469 L 13.828125 46.9375 C 13.90625 46.539062 13.644531 46.15625 13.246094 46.082031 Z M 13.246094 46.082031 "/></g></svg>