<svg xmlns="http://www.w3.org/2000/svg" xmlns:xlink="http://www.w3.org/1999/xlink" width="126" zoomAndPan="magnify" viewBox="0 0 94.5 59.249999" height="79" preserveAspectRatio="xMidYMid meet" version="1.2"><defs><clipPath id="103c89c39e"><path d="M 0.34375 0 L 79 0 L 79 57.769531 L 0.34375 57.769531 Z M 0.34375 0 "/></clipPath><clipPath id="5e94423ba4"><path d="M 62 14 L 92.921875 14 L 92.921875 45 L 62 45 Z M 62 14 "/></clipPath><clipPath id="12695af564"><path d="M 0.34375 0 L 79 0 L 79 57.769531 L 0.34375 57.769531 Z M 0.34375 0 "/></clipPath><clipPath id="684aef8ac6"><path d="M 62 14 L 92.921875 14 L 92.921875 45 L 62 45 Z M 62 14 "/></clipPath></defs><g id="c49f84d61a"><path style=" stroke:none;fill-rule:nonzero;fill:#ffffff;fill-opacity:1;" d="M 33.558594 43.328125 C 32.765625 43.328125 32.117188 43.976562 32.117188 44.769531 C 32.117188 45.566406 32.765625 46.214844 33.558594 46.214844 L 45.113281 46.214844 C 45.90625 46.214844 46.558594 45.566406 46.558594 44.769531 C 46.558594 43.976562 45.90625 43.328125 45.113281 43.328125 Z M 33.558594 43.328125 "/><path style=" stroke:none;fill-rule:nonzero;fill:#ffffff;fill-opacity:1;" d="M 13.414062 44.335938 C 13.414062 44.5 13.382812 44.65625 13.320312 44.808594 C 13.257812 44.957031 13.167969 45.089844 13.054688 45.207031 C 12.9375 45.320312 12.804688 45.410156 12.65625 45.472656 C 12.503906 45.535156 12.347656 45.566406 12.1875 45.566406 C 12.023438 45.566406 11.867188 45.535156 11.714844 45.472656 C 11.566406 45.410156 11.433594 45.320312 11.316406 45.207031 C 11.203125 45.089844 11.113281 44.957031 11.050781 44.808594 C 10.988281 44.65625 10.957031 44.5 10.957031 44.335938 C 10.957031 44.175781 10.988281 44.019531 11.050781 43.867188 C 11.113281 43.71875 11.203125 43.585938 11.316406 43.46875 C 11.433594 43.355469 11.566406 43.265625 11.714844 43.203125 C 11.867188 43.140625 12.023438 43.109375 12.1875 43.109375 C 12.347656 43.109375 12.503906 43.140625 12.65625 43.203125 C 12.804688 43.265625 12.9375 43.355469 13.054688 43.46875 C 13.167969 43.585938 13.257812 43.71875 13.320312 43.867188 C 13.382812 44.019531 13.414062 44.175781 13.414062 44.335938 Z M 13.414062 44.335938 "/><path style=" stroke:none;fill-rule:nonzero;fill:#ffffff;fill-opacity:1;" d="M 8.574219 44.335938 C 8.574219 44.5 8.542969 44.65625 8.480469 44.808594 C 8.417969 44.957031 8.332031 45.089844 8.214844 45.207031 C 8.101562 45.320312 7.96875 45.410156 7.816406 45.472656 C 7.667969 45.535156 7.511719 45.566406 7.347656 45.566406 C 7.183594 45.566406 7.027344 45.535156 6.878906 45.472656 C 6.726562 45.410156 6.59375 45.320312 6.480469 45.207031 C 6.363281 45.089844 6.277344 44.957031 6.214844 44.808594 C 6.152344 44.65625 6.121094 44.5 6.121094 44.335938 C 6.121094 44.175781 6.152344 44.019531 6.214844 43.867188 C 6.277344 43.71875 6.363281 43.585938 6.480469 43.46875 C 6.59375 43.355469 6.726562 43.265625 6.878906 43.203125 C 7.027344 43.140625 7.183594 43.109375 7.347656 43.109375 C 7.511719 43.109375 7.667969 43.140625 7.816406 43.203125 C 7.96875 43.265625 8.101562 43.355469 8.214844 43.46875 C 8.332031 43.585938 8.417969 43.71875 8.480469 43.867188 C 8.542969 44.019531 8.574219 44.175781 8.574219 44.335938 Z M 8.574219 44.335938 "/><path style=" stroke:none;fill-rule:nonzero;fill:#ffffff;fill-opacity:1;" d="M 32.621094 11.480469 C 32.1875 10.832031 31.25 10.617188 30.597656 11.046875 L 17.601562 19.714844 C 17.167969 20.003906 16.953125 20.4375 16.953125 20.941406 C 16.953125 21.445312 17.167969 21.878906 17.601562 22.167969 C 17.601562 22.167969 30.597656 30.835938 30.597656 30.835938 C 31.25 31.265625 32.1875 31.121094 32.621094 30.402344 C 33.054688 29.75 32.910156 28.8125 32.1875 28.378906 L 20.996094 20.941406 L 32.1875 13.503906 C 32.835938 13.070312 33.054688 12.132812 32.621094 11.480469 Z M 32.621094 11.480469 "/><path style=" stroke:none;fill-rule:nonzero;fill:#ffffff;fill-opacity:1;" d="M 46.050781 30.402344 C 46.484375 31.050781 47.425781 31.265625 48.074219 30.835938 L 61.070312 22.167969 C 61.503906 21.878906 61.722656 21.445312 61.722656 20.941406 C 61.722656 20.4375 61.503906 20.003906 61.070312 19.714844 L 48.074219 11.046875 C 47.425781 10.617188 46.484375 10.761719 46.050781 11.480469 C 45.617188 12.132812 45.761719 13.070312 46.484375 13.503906 L 57.679688 20.941406 L 46.484375 28.378906 C 45.835938 28.8125 45.617188 29.75 46.050781 30.402344 Z M 46.050781 30.402344 "/><path style=" stroke:none;fill-rule:nonzero;fill:#ffffff;fill-opacity:1;" d="M 40.851562 9.75 L 35.078125 31.410156 C 34.859375 32.207031 35.363281 33 36.085938 33.144531 C 36.230469 33.144531 36.304688 33.21875 36.449219 33.21875 C 37.097656 33.21875 37.675781 32.785156 37.820312 32.132812 L 43.597656 10.472656 C 43.8125 9.675781 43.308594 8.882812 42.585938 8.738281 C 41.863281 8.519531 41.070312 8.953125 40.851562 9.75 Z M 40.851562 9.75 "/><g clip-rule="nonzero" clip-path="url(#103c89c39e)"><path style=" stroke:none;fill-rule:nonzero;fill:#ffffff;fill-opacity:1;" d="M 33.558594 54.878906 L 29.226562 54.878906 C 28.433594 54.878906 27.785156 55.53125 27.785156 56.324219 C 27.785156 57.117188 28.433594 57.769531 29.226562 57.769531 L 49.445312 57.769531 C 50.242188 57.769531 50.890625 57.117188 50.890625 56.324219 C 50.890625 55.53125 50.242188 54.878906 49.445312 54.878906 L 45.113281 54.878906 L 45.113281 50.546875 L 73.996094 50.546875 C 75.875 50.546875 77.464844 49.320312 78.039062 47.660156 L 76.523438 47.660156 C 75.875 47.660156 75.296875 47.585938 74.71875 47.371094 C 74.503906 47.515625 74.214844 47.660156 73.925781 47.660156 L 4.675781 47.660156 C 3.882812 47.660156 3.230469 47.007812 3.230469 46.214844 L 3.230469 41.882812 L 64.320312 41.882812 L 64.105469 41.664062 C 63.382812 40.941406 62.804688 40.003906 62.515625 38.992188 L 3.230469 38.992188 L 3.230469 4.332031 C 3.230469 3.539062 3.882812 2.890625 4.675781 2.890625 L 73.996094 2.890625 C 74.792969 2.890625 75.441406 3.539062 75.441406 4.332031 L 75.441406 11.699219 C 75.800781 11.625 76.164062 11.554688 76.597656 11.554688 L 78.328125 11.554688 L 78.328125 4.332031 C 78.328125 1.949219 76.378906 0 73.996094 0 L 4.675781 0 C 2.292969 0 0.34375 1.949219 0.34375 4.332031 L 0.34375 46.214844 C 0.34375 48.597656 2.292969 50.546875 4.675781 50.546875 L 33.558594 50.546875 Z M 36.449219 50.546875 L 42.226562 50.546875 L 42.226562 54.878906 L 36.449219 54.878906 Z M 36.449219 50.546875 "/></g><g clip-rule="nonzero" clip-path="url(#5e94423ba4)"><path style=" stroke:none;fill-rule:nonzero;fill:#ffffff;fill-opacity:1;" d="M 89.957031 25.058594 C 89.8125 24.695312 89.667969 24.40625 89.523438 24.046875 C 90.460938 22.675781 90.316406 20.796875 89.089844 19.570312 L 87.644531 18.125 C 86.996094 17.476562 86.054688 17.113281 85.117188 17.113281 C 84.394531 17.113281 83.746094 17.332031 83.167969 17.691406 C 82.878906 17.546875 82.519531 17.402344 82.15625 17.257812 C 81.796875 15.597656 80.351562 14.441406 78.691406 14.441406 L 76.667969 14.441406 C 74.9375 14.441406 73.492188 15.671875 73.203125 17.257812 C 72.839844 17.402344 72.554688 17.546875 72.191406 17.691406 C 71.613281 17.332031 70.964844 17.113281 70.242188 17.113281 C 69.304688 17.113281 68.363281 17.476562 67.714844 18.125 L 66.269531 19.570312 C 65.042969 20.796875 64.898438 22.675781 65.835938 24.046875 C 65.691406 24.335938 65.546875 24.695312 65.402344 25.058594 C 63.742188 25.417969 62.589844 26.863281 62.589844 28.523438 L 62.589844 30.546875 C 62.589844 32.277344 63.816406 33.722656 65.402344 34.011719 C 65.546875 34.371094 65.691406 34.660156 65.835938 35.023438 C 65.476562 35.601562 65.257812 36.25 65.257812 36.972656 C 65.257812 37.910156 65.621094 38.847656 66.269531 39.5 L 67.714844 40.941406 C 68.363281 41.59375 69.304688 41.953125 70.242188 41.953125 C 70.964844 41.953125 71.613281 41.738281 72.191406 41.375 C 72.480469 41.519531 72.839844 41.664062 73.203125 41.808594 C 73.5625 43.46875 75.007812 44.625 76.667969 44.625 L 78.691406 44.625 C 80.421875 44.625 81.867188 43.398438 82.15625 41.808594 C 82.519531 41.664062 82.804688 41.519531 83.167969 41.375 C 83.746094 41.738281 84.394531 41.953125 85.117188 41.953125 C 86.054688 41.953125 86.996094 41.59375 87.644531 40.941406 L 89.089844 39.5 C 89.738281 38.847656 90.101562 37.910156 90.101562 36.972656 C 90.101562 36.25 89.882812 35.601562 89.523438 35.023438 C 89.667969 34.734375 89.8125 34.371094 89.957031 34.011719 C 91.617188 33.648438 92.769531 32.207031 92.769531 30.546875 L 92.769531 28.523438 C 92.769531 26.863281 91.542969 25.417969 89.957031 25.058594 Z M 89.882812 30.617188 C 89.882812 30.976562 89.59375 31.265625 89.234375 31.265625 L 87.71875 31.265625 C 87.429688 32.855469 86.851562 34.226562 85.984375 35.457031 L 87.066406 36.539062 C 87.355469 36.828125 87.355469 37.261719 87.066406 37.476562 L 85.621094 38.921875 C 85.476562 39.066406 85.332031 39.136719 85.117188 39.136719 C 84.902344 39.136719 84.757812 39.066406 84.613281 38.921875 L 83.527344 37.839844 C 82.300781 38.703125 80.855469 39.355469 79.339844 39.570312 L 79.339844 41.085938 C 79.339844 41.449219 79.050781 41.738281 78.691406 41.738281 L 76.667969 41.738281 C 76.308594 41.738281 76.019531 41.449219 76.019531 41.085938 L 76.019531 39.714844 C 74.429688 39.425781 73.058594 38.847656 71.832031 37.984375 L 70.601562 38.992188 C 70.457031 39.136719 70.3125 39.210938 70.097656 39.210938 C 69.882812 39.210938 69.808594 39.136719 69.664062 38.992188 L 68.21875 37.550781 C 67.929688 37.261719 67.929688 36.828125 68.21875 36.609375 L 69.304688 35.527344 C 68.4375 34.300781 67.785156 32.855469 67.570312 31.339844 L 66.054688 31.339844 C 65.691406 31.339844 65.402344 31.050781 65.402344 30.691406 L 65.402344 28.667969 C 65.402344 28.308594 65.691406 28.019531 66.054688 28.019531 L 67.5 28.019531 C 67.785156 26.429688 68.363281 25.058594 69.230469 23.828125 L 68.21875 22.601562 C 67.929688 22.3125 67.929688 21.878906 68.21875 21.664062 L 69.664062 20.21875 C 69.808594 20.074219 69.953125 20.003906 70.171875 20.003906 C 70.386719 20.003906 70.53125 20.074219 70.675781 20.21875 L 71.757812 21.300781 C 72.984375 20.4375 74.429688 19.785156 75.945312 19.570312 L 75.945312 18.054688 C 75.945312 17.691406 76.234375 17.402344 76.597656 17.402344 L 78.617188 17.402344 C 78.980469 17.402344 79.269531 17.691406 79.269531 18.054688 L 79.269531 19.496094 C 80.855469 19.785156 82.230469 20.363281 83.457031 21.230469 L 84.539062 20.148438 C 84.683594 20.003906 84.828125 19.929688 85.046875 19.929688 C 85.261719 19.929688 85.40625 20.003906 85.550781 20.148438 L 86.996094 21.589844 C 87.285156 21.878906 87.285156 22.3125 86.996094 22.53125 L 85.910156 23.613281 C 86.777344 24.839844 87.429688 26.285156 87.644531 27.800781 L 89.160156 27.800781 C 89.523438 27.800781 89.8125 28.089844 89.8125 28.449219 L 89.8125 30.617188 Z M 89.882812 30.617188 "/></g><path style=" stroke:none;fill-rule:nonzero;fill:#ffffff;fill-opacity:1;" d="M 77.609375 23.828125 C 74.429688 23.828125 71.832031 26.429688 71.832031 29.605469 C 71.832031 32.785156 74.429688 35.382812 77.609375 35.382812 C 80.785156 35.382812 83.382812 32.785156 83.382812 29.605469 C 83.382812 26.429688 80.785156 23.828125 77.609375 23.828125 Z M 77.609375 32.496094 C 76.019531 32.496094 74.71875 31.195312 74.71875 29.605469 C 74.71875 28.019531 76.019531 26.71875 77.609375 26.71875 C 79.195312 26.71875 80.496094 28.019531 80.496094 29.605469 C 80.496094 31.195312 79.195312 32.496094 77.609375 32.496094 Z M 77.609375 32.496094 "/><path style=" stroke:none;fill-rule:nonzero;fill:#ffffff;fill-opacity:1;" d="M 33.558594 43.328125 C 32.765625 43.328125 32.117188 43.976562 32.117188 44.769531 C 32.117188 45.566406 32.765625 46.214844 33.558594 46.214844 L 45.113281 46.214844 C 45.90625 46.214844 46.558594 45.566406 46.558594 44.769531 C 46.558594 43.976562 45.90625 43.328125 45.113281 43.328125 Z M 33.558594 43.328125 "/><path style=" stroke:none;fill-rule:nonzero;fill:#ffffff;fill-opacity:1;" d="M 13.414062 44.335938 C 13.414062 44.5 13.382812 44.65625 13.320312 44.808594 C 13.257812 44.957031 13.167969 45.089844 13.054688 45.207031 C 12.9375 45.320312 12.804688 45.410156 12.65625 45.472656 C 12.503906 45.535156 12.347656 45.566406 12.1875 45.566406 C 12.023438 45.566406 11.867188 45.535156 11.714844 45.472656 C 11.566406 45.410156 11.433594 45.320312 11.316406 45.207031 C 11.203125 45.089844 11.113281 44.957031 11.050781 44.808594 C 10.988281 44.65625 10.957031 44.5 10.957031 44.335938 C 10.957031 44.175781 10.988281 44.019531 11.050781 43.867188 C 11.113281 43.71875 11.203125 43.585938 11.316406 43.46875 C 11.433594 43.355469 11.566406 43.265625 11.714844 43.203125 C 11.867188 43.140625 12.023438 43.109375 12.1875 43.109375 C 12.347656 43.109375 12.503906 43.140625 12.65625 43.203125 C 12.804688 43.265625 12.9375 43.355469 13.054688 43.46875 C 13.167969 43.585938 13.257812 43.71875 13.320312 43.867188 C 13.382812 44.019531 13.414062 44.175781 13.414062 44.335938 Z M 13.414062 44.335938 "/><path style=" stroke:none;fill-rule:nonzero;fill:#ffffff;fill-opacity:1;" d="M 8.574219 44.335938 C 8.574219 44.5 8.542969 44.65625 8.480469 44.808594 C 8.417969 44.957031 8.332031 45.089844 8.214844 45.207031 C 8.101562 45.320312 7.96875 45.410156 7.816406 45.472656 C 7.667969 45.535156 7.511719 45.566406 7.347656 45.566406 C 7.183594 45.566406 7.027344 45.535156 6.878906 45.472656 C 6.726562 45.410156 6.59375 45.320312 6.480469 45.207031 C 6.363281 45.089844 6.277344 44.957031 6.214844 44.808594 C 6.152344 44.65625 6.121094 44.5 6.121094 44.335938 C 6.121094 44.175781 6.152344 44.019531 6.214844 43.867188 C 6.277344 43.71875 6.363281 43.585938 6.480469 43.46875 C 6.59375 43.355469 6.726562 43.265625 6.878906 43.203125 C 7.027344 43.140625 7.183594 43.109375 7.347656 43.109375 C 7.511719 43.109375 7.667969 43.140625 7.816406 43.203125 C 7.96875 43.265625 8.101562 43.355469 8.214844 43.46875 C 8.332031 43.585938 8.417969 43.71875 8.480469 43.867188 C 8.542969 44.019531 8.574219 44.175781 8.574219 44.335938 Z M 8.574219 44.335938 "/><path style=" stroke:none;fill-rule:nonzero;fill:#ffffff;fill-opacity:1;" d="M 32.621094 11.480469 C 32.1875 10.832031 31.25 10.617188 30.597656 11.046875 L 17.601562 19.714844 C 17.167969 20.003906 16.953125 20.4375 16.953125 20.941406 C 16.953125 21.445312 17.167969 21.878906 17.601562 22.167969 C 17.601562 22.167969 30.597656 30.835938 30.597656 30.835938 C 31.25 31.265625 32.1875 31.121094 32.621094 30.402344 C 33.054688 29.75 32.910156 28.8125 32.1875 28.378906 L 20.996094 20.941406 L 32.1875 13.503906 C 32.835938 13.070312 33.054688 12.132812 32.621094 11.480469 Z M 32.621094 11.480469 "/><path style=" stroke:none;fill-rule:nonzero;fill:#ffffff;fill-opacity:1;" d="M 46.050781 30.402344 C 46.484375 31.050781 47.425781 31.265625 48.074219 30.835938 L 61.070312 22.167969 C 61.503906 21.878906 61.722656 21.445312 61.722656 20.941406 C 61.722656 20.4375 61.503906 20.003906 61.070312 19.714844 L 48.074219 11.046875 C 47.425781 10.617188 46.484375 10.761719 46.050781 11.480469 C 45.617188 12.132812 45.761719 13.070312 46.484375 13.503906 L 57.679688 20.941406 L 46.484375 28.378906 C 45.835938 28.8125 45.617188 29.75 46.050781 30.402344 Z M 46.050781 30.402344 "/><path style=" stroke:none;fill-rule:nonzero;fill:#ffffff;fill-opacity:1;" d="M 40.851562 9.75 L 35.078125 31.410156 C 34.859375 32.207031 35.363281 33 36.085938 33.144531 C 36.230469 33.144531 36.304688 33.21875 36.449219 33.21875 C 37.097656 33.21875 37.675781 32.785156 37.820312 32.132812 L 43.597656 10.472656 C 43.8125 9.675781 43.308594 8.882812 42.585938 8.738281 C 41.863281 8.519531 41.070312 8.953125 40.851562 9.75 Z M 40.851562 9.75 "/><g clip-rule="nonzero" clip-path="url(#12695af564)"><path style=" stroke:none;fill-rule:nonzero;fill:#ffffff;fill-opacity:1;" d="M 33.558594 54.878906 L 29.226562 54.878906 C 28.433594 54.878906 27.785156 55.53125 27.785156 56.324219 C 27.785156 57.117188 28.433594 57.769531 29.226562 57.769531 L 49.445312 57.769531 C 50.242188 57.769531 50.890625 57.117188 50.890625 56.324219 C 50.890625 55.53125 50.242188 54.878906 49.445312 54.878906 L 45.113281 54.878906 L 45.113281 50.546875 L 73.996094 50.546875 C 75.875 50.546875 77.464844 49.320312 78.039062 47.660156 L 76.523438 47.660156 C 75.875 47.660156 75.296875 47.585938 74.71875 47.371094 C 74.503906 47.515625 74.214844 47.660156 73.925781 47.660156 L 4.675781 47.660156 C 3.882812 47.660156 3.230469 47.007812 3.230469 46.214844 L 3.230469 41.882812 L 64.320312 41.882812 L 64.105469 41.664062 C 63.382812 40.941406 62.804688 40.003906 62.515625 38.992188 L 3.230469 38.992188 L 3.230469 4.332031 C 3.230469 3.539062 3.882812 2.890625 4.675781 2.890625 L 73.996094 2.890625 C 74.792969 2.890625 75.441406 3.539062 75.441406 4.332031 L 75.441406 11.699219 C 75.800781 11.625 76.164062 11.554688 76.597656 11.554688 L 78.328125 11.554688 L 78.328125 4.332031 C 78.328125 1.949219 76.378906 0 73.996094 0 L 4.675781 0 C 2.292969 0 0.34375 1.949219 0.34375 4.332031 L 0.34375 46.214844 C 0.34375 48.597656 2.292969 50.546875 4.675781 50.546875 L 33.558594 50.546875 Z M 36.449219 50.546875 L 42.226562 50.546875 L 42.226562 54.878906 L 36.449219 54.878906 Z M 36.449219 50.546875 "/></g><g clip-rule="nonzero" clip-path="url(#684aef8ac6)"><path style=" stroke:none;fill-rule:nonzero;fill:#ffffff;fill-opacity:1;" d="M 89.957031 25.058594 C 89.8125 24.695312 89.667969 24.40625 89.523438 24.046875 C 90.460938 22.675781 90.316406 20.796875 89.089844 19.570312 L 87.644531 18.125 C 86.996094 17.476562 86.054688 17.113281 85.117188 17.113281 C 84.394531 17.113281 83.746094 17.332031 83.167969 17.691406 C 82.878906 17.546875 82.519531 17.402344 82.15625 17.257812 C 81.796875 15.597656 80.351562 14.441406 78.691406 14.441406 L 76.667969 14.441406 C 74.9375 14.441406 73.492188 15.671875 73.203125 17.257812 C 72.839844 17.402344 72.554688 17.546875 72.191406 17.691406 C 71.613281 17.332031 70.964844 17.113281 70.242188 17.113281 C 69.304688 17.113281 68.363281 17.476562 67.714844 18.125 L 66.269531 19.570312 C 65.042969 20.796875 64.898438 22.675781 65.835938 24.046875 C 65.691406 24.335938 65.546875 24.695312 65.402344 25.058594 C 63.742188 25.417969 62.589844 26.863281 62.589844 28.523438 L 62.589844 30.546875 C 62.589844 32.277344 63.816406 33.722656 65.402344 34.011719 C 65.546875 34.371094 65.691406 34.660156 65.835938 35.023438 C 65.476562 35.601562 65.257812 36.25 65.257812 36.972656 C 65.257812 37.910156 65.621094 38.847656 66.269531 39.5 L 67.714844 40.941406 C 68.363281 41.59375 69.304688 41.953125 70.242188 41.953125 C 70.964844 41.953125 71.613281 41.738281 72.191406 41.375 C 72.480469 41.519531 72.839844 41.664062 73.203125 41.808594 C 73.5625 43.46875 75.007812 44.625 76.667969 44.625 L 78.691406 44.625 C 80.421875 44.625 81.867188 43.398438 82.15625 41.808594 C 82.519531 41.664062 82.804688 41.519531 83.167969 41.375 C 83.746094 41.738281 84.394531 41.953125 85.117188 41.953125 C 86.054688 41.953125 86.996094 41.59375 87.644531 40.941406 L 89.089844 39.5 C 89.738281 38.847656 90.101562 37.910156 90.101562 36.972656 C 90.101562 36.25 89.882812 35.601562 89.523438 35.023438 C 89.667969 34.734375 89.8125 34.371094 89.957031 34.011719 C 91.617188 33.648438 92.769531 32.207031 92.769531 30.546875 L 92.769531 28.523438 C 92.769531 26.863281 91.542969 25.417969 89.957031 25.058594 Z M 89.882812 30.617188 C 89.882812 30.976562 89.59375 31.265625 89.234375 31.265625 L 87.71875 31.265625 C 87.429688 32.855469 86.851562 34.226562 85.984375 35.457031 L 87.066406 36.539062 C 87.355469 36.828125 87.355469 37.261719 87.066406 37.476562 L 85.621094 38.921875 C 85.476562 39.066406 85.332031 39.136719 85.117188 39.136719 C 84.902344 39.136719 84.757812 39.066406 84.613281 38.921875 L 83.527344 37.839844 C 82.300781 38.703125 80.855469 39.355469 79.339844 39.570312 L 79.339844 41.085938 C 79.339844 41.449219 79.050781 41.738281 78.691406 41.738281 L 76.667969 41.738281 C 76.308594 41.738281 76.019531 41.449219 76.019531 41.085938 L 76.019531 39.714844 C 74.429688 39.425781 73.058594 38.847656 71.832031 37.984375 L 70.601562 38.992188 C 70.457031 39.136719 70.3125 39.210938 70.097656 39.210938 C 69.882812 39.210938 69.808594 39.136719 69.664062 38.992188 L 68.21875 37.550781 C 67.929688 37.261719 67.929688 36.828125 68.21875 36.609375 L 69.304688 35.527344 C 68.4375 34.300781 67.785156 32.855469 67.570312 31.339844 L 66.054688 31.339844 C 65.691406 31.339844 65.402344 31.050781 65.402344 30.691406 L 65.402344 28.667969 C 65.402344 28.308594 65.691406 28.019531 66.054688 28.019531 L 67.5 28.019531 C 67.785156 26.429688 68.363281 25.058594 69.230469 23.828125 L 68.21875 22.601562 C 67.929688 22.3125 67.929688 21.878906 68.21875 21.664062 L 69.664062 20.21875 C 69.808594 20.074219 69.953125 20.003906 70.171875 20.003906 C 70.386719 20.003906 70.53125 20.074219 70.675781 20.21875 L 71.757812 21.300781 C 72.984375 20.4375 74.429688 19.785156 75.945312 19.570312 L 75.945312 18.054688 C 75.945312 17.691406 76.234375 17.402344 76.597656 17.402344 L 78.617188 17.402344 C 78.980469 17.402344 79.269531 17.691406 79.269531 18.054688 L 79.269531 19.496094 C 80.855469 19.785156 82.230469 20.363281 83.457031 21.230469 L 84.539062 20.148438 C 84.683594 20.003906 84.828125 19.929688 85.046875 19.929688 C 85.261719 19.929688 85.40625 20.003906 85.550781 20.148438 L 86.996094 21.589844 C 87.285156 21.878906 87.285156 22.3125 86.996094 22.53125 L 85.910156 23.613281 C 86.777344 24.839844 87.429688 26.285156 87.644531 27.800781 L 89.160156 27.800781 C 89.523438 27.800781 89.8125 28.089844 89.8125 28.449219 L 89.8125 30.617188 Z M 89.882812 30.617188 "/></g><path style=" stroke:none;fill-rule:nonzero;fill:#ffffff;fill-opacity:1;" d="M 77.609375 23.828125 C 74.429688 23.828125 71.832031 26.429688 71.832031 29.605469 C 71.832031 32.785156 74.429688 35.382812 77.609375 35.382812 C 80.785156 35.382812 83.382812 32.785156 83.382812 29.605469 C 83.382812 26.429688 80.785156 23.828125 77.609375 23.828125 Z M 77.609375 32.496094 C 76.019531 32.496094 74.71875 31.195312 74.71875 29.605469 C 74.71875 28.019531 76.019531 26.71875 77.609375 26.71875 C 79.195312 26.71875 80.496094 28.019531 80.496094 29.605469 C 80.496094 31.195312 79.195312 32.496094 77.609375 32.496094 Z M 77.609375 32.496094 "/></g></svg>